<svg version="1.1" xmlns="http://www.w3.org/2000/svg" xmlns:xlink="http://www.w3.org/1999/xlink" x="0px" y="0px"
	 viewBox="0 0 300 300" style="enable-background:new 0 0 300 300;" xml:space="preserve">
<style type="text/css">
	.st0{fill:none;stroke:#FBB040;stroke-width:6;stroke-miterlimit:10;}
	.st1{fill:none;stroke:#2B3990;stroke-width:6;stroke-miterlimit:10;}
</style>
<g id="Layer_2">
	<path class="st0" d="M62.8,139.4c-2-1.9-13.8-13.5-13.5-31.9c0.3-17.8,8.2-28.4,11.2-31c15.5-13.3,36-18.7,52.3-8.5
		c12.1,7.6,15.4,21.2,16.1,25"/>
</g>
<g id="Layer_1">
	<path class="st1" d="M218.1,197.5c-47.4,1.8-79.2-7-114.5,0c-4.9,1-14.1,3.1-25.5,0.5c-5.1-1.1-19.2-4.3-25.5-15.5
		c-8.1-14.3-1.2-37.5,15.5-47.5c12.4-7.5,28.7-6.7,42,1.5c-8.6-5.1-10.5-10.3-11-13c-2.5-13.6,17.7-28,33-33.5
		c17.2-6.2,43.3-6.5,57.5,9.5c1.6,1.8,13,14.5,9,29c-1.8,6.4-5.9,10.7-8.5,13c2.7-2.2,8.2-6,16-7c13.4-1.8,23.4,6.1,27,9
		c8.2,6.5,21.5,21.9,16.5,35.5c-3.8,10.2-16.1,14.9-19,16C224.8,197.2,219.9,197.4,218.1,197.5z"/>
</g>
</svg>
